<svg width="24" height="25" viewBox="0 0 24 25" fill="none" xmlns="http://www.w3.org/2000/svg">
<path d="M8.15658 16.3434C7.07994 16.3362 5.59735 16.0728 4.43407 14.9096C2.3623 12.8378 3.14497 9.75318 3.14497 9.75318C3.14497 9.75318 4.76016 9.34345 6.43811 9.90194C6.42585 9.81006 6.41557 9.717 6.4075 9.62271C6.39316 9.4551 6.38553 9.28381 6.38559 9.10857C6.38553 5.50308 9.59044 3.5 9.59044 3.5C9.59044 3.5 11.5931 4.75174 12.4323 7.05719C15.2245 5.10372 18.6141 5.88589 18.6141 5.88589C18.6141 5.88589 19.3963 9.27553 17.4428 12.0677C19.7483 12.9069 21 14.9096 21 14.9096C21 14.9096 18.9969 18.1145 15.3914 18.1144C15.1177 18.1144 14.8531 18.096 14.5981 18.0619C15.1565 19.7398 14.7468 21.355 14.7468 21.355C14.7468 21.355 11.6622 22.1377 9.59044 20.0659" fill="#8BEA7C"/>
<path d="M8.15658 16.3434C7.07994 16.3362 5.59735 16.0728 4.43407 14.9096C2.3623 12.8378 3.14497 9.75318 3.14497 9.75318C3.14497 9.75318 4.76016 9.34345 6.43811 9.90194C6.42585 9.81006 6.41557 9.717 6.4075 9.62271C6.39316 9.4551 6.38553 9.28381 6.38559 9.10857C6.38553 5.50308 9.59044 3.5 9.59044 3.5C9.59044 3.5 11.5931 4.75174 12.4323 7.05719C15.2245 5.10372 18.6141 5.88589 18.6141 5.88589C18.6141 5.88589 19.3963 9.27553 17.4428 12.0677C19.7483 12.9069 21 14.9096 21 14.9096C21 14.9096 18.9969 18.1145 15.3914 18.1144C15.1177 18.1144 14.8531 18.096 14.5981 18.0619C15.1565 19.7398 14.7468 21.355 14.7468 21.355C14.7468 21.355 11.6622 22.1377 9.59044 20.0659C8.75505 19.1002 8.35879 18.4225 8.15658 16.3434Z" stroke="#8BEA7C" stroke-width="1.5" stroke-linecap="round" stroke-linejoin="round"/>
<path d="M3 21.5L13 11.5" stroke="#8BEA7C" stroke-width="1.5" stroke-linecap="round"/>
<path d="M9 15.5L17.5 7M9 15.5C8.00031 15.5 4.49969 13.5 4.5 11M9 15.5C9 18 11 20 13 20M9.5 6C8.50814 9.63174 9.05295 11.2673 10.5 14C13.3244 15.9752 14.8145 16.0983 19 15" stroke="#0C3E26" stroke-linecap="round"/>
</svg>
