<svg width="50" height="50" viewBox="0 0 50 50" fill="none" xmlns="http://www.w3.org/2000/svg">
<path d="M34.3753 45.8334C38.9776 45.8334 42.7087 42.1024 42.7087 37.5001C42.7087 35.2782 41.8391 33.2597 40.4218 31.7657C39.3662 30.653 38.8384 30.0965 38.6901 29.7249C38.542 29.3532 38.542 28.8615 38.542 27.8782V8.33342C38.542 6.03223 36.6764 4.16675 34.3753 4.16675C32.0741 4.16675 30.2087 6.03223 30.2087 8.33342V27.8782C30.2087 28.8615 30.2087 29.3532 30.0603 29.7249C29.912 30.0965 29.3843 30.653 28.3287 31.7657C26.9114 33.2597 26.042 35.2782 26.042 37.5001C26.042 42.1024 29.7728 45.8334 34.3753 45.8334Z" stroke="#FDFF8F" stroke-width="3.125" stroke-linecap="round" stroke-linejoin="round"/>
<path d="M21.4864 32.9797C18.0793 32.3783 15.3405 29.3833 15.0073 25.543C14.6123 20.9916 17.7463 16.9762 22.0074 16.5747C22.6732 16.5119 23.3274 16.5412 23.9587 16.6526M21.2922 8.33325L21.5066 10.8057M12.5878 15.7827L10.7995 14.1886M9.60658 26.052L7.29199 26.2701M14.3082 35.5974L12.8232 37.4999" stroke="#FDFF8F" stroke-width="3.125" stroke-linecap="round"/>
</svg>
